<?xml version="1.0" standalone="no"?>
<!DOCTYPE svg PUBLIC "-//W3C//DTD SVG 1.1//EN" "http://www.w3.org/Graphics/SVG/1.1/DTD/svg11.dtd">
<svg version="1.1" xmlns="http://www.w3.org/2000/svg" viewBox="0 0 1055.3285858551662 151.49534278880037" width="3165.9857575654987" height="454.4860283664011"><!-- svg-source:excalidraw --><metadata></metadata><defs><style class="style-fonts">
      </style></defs><g transform="translate(10 140.20833333333576) rotate(0 99.822568997811 0.6435047277323065)" stroke="none"><path fill="#757575" d="M 0.09,-3.36 Q 0.09,-3.36 2.87,-3.45 5.65,-3.53 8.60,-3.61 11.56,-3.68 15.42,-3.59 19.28,-3.50 23.60,-3.35 27.91,-3.19 32.34,-3.07 36.76,-2.96 41.77,-2.88 46.78,-2.80 51.38,-2.74 55.98,-2.68 61.60,-2.63 67.21,-2.59 73.00,-2.56 78.78,-2.52 83.24,-2.50 87.70,-2.48 92.57,-2.46 97.45,-2.45 104.24,-2.43 111.02,-2.42 118.68,-2.41 126.35,-2.40 134.12,-2.40 141.90,-2.39 146.97,-2.39 152.03,-2.38 155.50,-2.53 158.97,-2.69 162.43,-2.81 165.89,-2.93 168.33,-3.13 170.76,-3.33 174.30,-3.52 177.83,-3.71 180.52,-3.87 183.21,-4.03 185.67,-4.22 188.13,-4.41 190.94,-4.62 193.75,-4.84 196.27,-5.07 198.79,-5.30 199.52,-5.22 200.25,-5.13 200.94,-4.87 201.63,-4.60 202.23,-4.19 202.84,-3.77 203.33,-3.22 203.82,-2.67 204.16,-2.01 204.50,-1.36 204.68,-0.65 204.85,0.06 204.85,0.79 204.85,1.53 204.68,2.24 204.50,2.96 204.16,3.61 203.81,4.26 203.33,4.81 202.84,5.36 202.23,5.78 201.63,6.20 200.94,6.46 200.25,6.72 199.52,6.81 198.79,6.90 196.46,5.82 194.13,4.74 193.62,3.90 193.12,3.05 192.90,2.09 192.69,1.12 192.80,0.14 192.91,-0.83 193.32,-1.73 193.74,-2.63 194.42,-3.34 195.10,-4.06 195.97,-4.52 196.84,-4.99 197.82,-5.14 198.79,-5.30 199.77,-5.14 200.74,-4.98 201.61,-4.52 202.49,-4.06 203.17,-3.34 203.85,-2.62 204.26,-1.73 204.67,-0.83 204.78,0.14 204.89,1.13 204.67,2.09 204.46,3.06 203.95,3.90 203.44,4.75 202.69,5.39 201.94,6.03 201.02,6.39 200.10,6.76 199.11,6.81 198.13,6.86 197.17,6.60 196.22,6.33 195.41,5.78 194.59,5.22 193.99,4.44 193.39,3.65 193.08,2.71 192.76,1.78 192.76,0.79 192.76,-0.19 193.08,-1.12 193.40,-2.06 193.99,-2.85 194.59,-3.63 195.41,-4.19 196.23,-4.74 197.18,-5.00 198.13,-5.27 199.12,-5.21 200.11,-5.16 201.02,-4.79 201.94,-4.43 200.37,-4.87 198.79,-5.30 199.52,-5.22 200.25,-5.13 200.94,-4.87 201.63,-4.60 202.23,-4.19 202.84,-3.77 203.33,-3.22 203.82,-2.67 204.16,-2.01 204.50,-1.36 204.68,-0.65 204.85,0.06 204.85,0.79 204.85,1.53 204.68,2.24 204.50,2.96 204.16,3.61 203.82,4.26 203.33,4.81 202.84,5.36 202.23,5.78 201.63,6.20 200.94,6.46 200.25,6.72 199.52,6.81 198.79,6.90 197.34,6.97 195.88,7.04 193.39,6.86 190.89,6.67 188.73,6.48 186.56,6.28 184.44,5.99 182.32,5.69 179.81,5.25 177.30,4.82 174.03,4.34 170.76,3.86 168.33,3.66 165.89,3.45 162.43,3.34 158.97,3.22 155.50,3.06 152.03,2.91 146.97,2.92 141.90,2.92 134.12,2.93 126.35,2.93 118.68,2.94 111.02,2.95 104.24,2.96 97.45,2.97 92.57,2.99 87.70,3.01 83.24,3.03 78.78,3.05 73.00,3.08 67.21,3.12 61.59,3.16 55.98,3.20 51.38,3.26 46.78,3.32 41.77,3.40 36.76,3.48 32.33,3.59 27.91,3.70 23.58,3.85 19.26,3.99 15.37,4.05 11.47,4.12 8.46,3.98 5.44,3.84 2.67,3.60 -0.09,3.36 -0.49,3.30 -0.89,3.24 -1.27,3.09 -1.64,2.93 -1.97,2.69 -2.30,2.45 -2.56,2.14 -2.82,1.83 -3.00,1.47 -3.18,1.10 -3.26,0.71 -3.35,0.31 -3.34,-0.09 -3.33,-0.49 -3.22,-0.88 -3.11,-1.28 -2.91,-1.63 -2.71,-1.98 -2.44,-2.28 -2.16,-2.58 -1.82,-2.80 -1.48,-3.02 -1.09,-3.15 -0.71,-3.29 -0.31,-3.32 0.09,-3.36 0.09,-3.36 L 0.09,-3.36 Z"></path></g><g transform="translate(281.58103293615886 138.64805474691548) rotate(0 106.47138325660637 -63.1912827499832)" stroke="none"><path fill="#757575" d="M 0,-5.13 Q 0,-5.13 1.98,-5.21 3.96,-5.28 6.71,-5.48 9.46,-5.68 11.91,-5.87 14.36,-6.06 16.56,-6.72 18.77,-7.38 20.97,-8.65 23.17,-9.92 25.08,-11.15 26.99,-12.38 28.79,-13.66 30.58,-14.95 32.75,-16.73 34.91,-18.51 36.65,-20.03 38.39,-21.54 40.57,-23.51 42.76,-25.47 44.32,-26.97 45.87,-28.48 47.73,-30.49 49.60,-32.50 51.15,-34.12 52.70,-35.74 54.29,-37.88 55.89,-40.01 57.13,-42.45 58.37,-44.90 59.57,-47.49 60.78,-50.09 61.86,-52.51 62.95,-54.93 63.77,-56.93 64.59,-58.94 65.51,-61.36 66.43,-63.78 67.30,-66.35 68.18,-68.92 68.98,-71.15 69.78,-73.38 70.48,-75.55 71.17,-77.73 71.77,-79.82 72.37,-81.92 72.95,-84.15 73.53,-86.37 74.07,-88.72 74.62,-91.07 75.37,-93.74 76.13,-96.42 76.96,-98.95 77.79,-101.48 78.54,-103.61 79.29,-105.75 80.11,-107.99 80.94,-110.24 82.05,-112.82 83.16,-115.40 84.30,-117.53 85.45,-119.66 86.62,-121.56 87.79,-123.46 89.47,-125.40 91.16,-127.34 93.12,-129.07 95.08,-130.79 97.12,-131.95 99.15,-133.11 101.27,-133.58 103.40,-134.05 105.70,-134.08 108.01,-134.11 110.54,-133.29 113.08,-132.48 114.87,-131.03 116.65,-129.59 118.31,-128.03 119.97,-126.48 120.94,-124.36 121.91,-122.24 122.47,-119.87 123.03,-117.50 123.59,-115.38 124.15,-113.26 124.56,-111.16 124.97,-109.06 125.38,-106.81 125.79,-104.57 126.24,-101.91 126.69,-99.25 127.07,-97.13 127.44,-95.02 127.85,-92.69 128.27,-90.35 128.72,-88.28 129.18,-86.20 129.72,-84.06 130.26,-81.92 131.03,-79.33 131.80,-76.74 132.39,-74.66 132.97,-72.58 133.58,-70.43 134.19,-68.29 134.92,-66.04 135.65,-63.79 136.75,-61.48 137.85,-59.18 138.83,-57.21 139.81,-55.24 141.32,-52.97 142.83,-50.71 144.50,-48.65 146.17,-46.59 148.04,-44.41 149.92,-42.23 151.32,-40.62 152.72,-39.02 154.39,-37.33 156.06,-35.64 157.64,-34.12 159.22,-32.59 161.43,-30.61 163.64,-28.64 165.70,-26.85 167.77,-25.06 169.71,-23.75 171.65,-22.44 173.86,-21.42 176.08,-20.39 178.21,-19.56 180.35,-18.73 182.44,-18.03 184.54,-17.34 186.78,-16.69 189.02,-16.05 191.20,-15.90 193.39,-15.76 195.61,-15.78 197.83,-15.81 200.02,-15.83 202.22,-15.85 204.35,-15.53 206.48,-15.21 208.61,-14.63 210.75,-14.06 208.99,-12.64 207.23,-11.21 208.20,-11.99 209.18,-12.76 210.35,-13.19 211.52,-13.61 212.77,-13.64 214.01,-13.67 215.20,-13.30 216.39,-12.93 217.40,-12.19 218.41,-11.46 219.13,-10.45 219.85,-9.43 220.21,-8.24 220.57,-7.05 220.53,-5.80 220.49,-4.55 220.06,-3.39 219.62,-2.22 218.84,-1.25 218.05,-0.28 217.00,0.37 215.95,1.04 214.74,1.33 213.53,1.63 212.28,1.52 211.04,1.41 209.90,0.91 208.76,0.42 207.84,-0.41 206.91,-1.25 206.30,-2.33 205.70,-3.42 205.47,-4.65 205.24,-5.87 205.41,-7.11 205.59,-8.34 206.15,-9.45 206.70,-10.57 207.59,-11.44 208.48,-12.32 209.59,-12.87 210.71,-13.42 211.95,-13.58 213.18,-13.74 214.41,-13.50 215.63,-13.26 216.71,-12.64 217.79,-12.02 218.62,-11.09 219.45,-10.16 219.93,-9.01 220.42,-7.86 220.52,-6.62 220.61,-5.38 220.30,-4.17 220.00,-2.96 219.32,-1.92 218.64,-0.87 218.65,-0.87 218.65,-0.87 212.73,-0.02 206.82,0.82 204.52,0.21 202.22,-0.40 200.02,-0.43 197.83,-0.45 195.61,-0.47 193.39,-0.49 191.22,-0.57 189.05,-0.64 186.82,-1.12 184.59,-1.59 181.90,-2.44 179.21,-3.30 176.12,-4.43 173.03,-5.56 170.78,-6.54 168.52,-7.53 166.41,-8.63 164.30,-9.73 162.12,-11.13 159.95,-12.54 157.96,-14.19 155.98,-15.83 154.21,-17.27 152.45,-18.72 150.68,-20.33 148.92,-21.94 147.25,-23.50 145.59,-25.06 143.48,-27.09 141.37,-29.12 139.34,-31.32 137.32,-33.52 135.32,-35.85 133.33,-38.18 131.59,-40.39 129.86,-42.61 128.51,-44.65 127.15,-46.70 125.89,-49.14 124.62,-51.59 123.42,-53.97 122.22,-56.35 121.17,-59.01 120.11,-61.67 119.30,-64.34 118.49,-67.00 117.72,-69.66 116.94,-72.33 116.20,-74.74 115.46,-77.15 114.80,-79.66 114.14,-82.17 113.68,-84.27 113.22,-86.37 112.83,-88.63 112.44,-90.88 111.98,-93.24 111.51,-95.59 111.12,-97.92 110.73,-100.25 110.29,-102.68 109.86,-105.12 109.45,-107.23 109.04,-109.33 108.41,-111.70 107.78,-114.07 107.24,-116.36 106.71,-118.65 104.69,-117.91 102.68,-117.18 101.00,-115.32 99.33,-113.47 98.06,-111.09 96.79,-108.72 95.89,-106.64 94.99,-104.55 94.08,-102.08 93.16,-99.61 92.38,-97.49 91.60,-95.37 90.90,-93.14 90.19,-90.91 89.49,-88.46 88.79,-86.01 88.23,-83.52 87.67,-81.03 86.94,-78.73 86.21,-76.44 85.54,-74.18 84.87,-71.93 83.97,-69.31 83.08,-66.69 82.37,-64.56 81.67,-62.42 80.69,-59.64 79.72,-56.87 78.74,-54.31 77.76,-51.76 76.50,-49.01 75.25,-46.26 74.07,-43.76 72.89,-41.26 71.99,-39.33 71.09,-37.40 70.00,-35.32 68.91,-33.24 67.73,-31.44 66.55,-29.64 64.78,-27.65 63.02,-25.66 61.00,-23.51 58.98,-21.37 57.46,-19.79 55.93,-18.22 54.23,-16.57 52.52,-14.92 50.91,-13.49 49.31,-12.05 47.26,-10.32 45.21,-8.58 43.22,-6.99 41.22,-5.41 39.37,-4.06 37.52,-2.70 35.36,-1.42 33.21,-0.14 30.82,1.12 28.43,2.39 26.41,3.35 24.40,4.32 22.17,5.01 19.93,5.71 17.14,5.89 14.36,6.06 11.91,5.87 9.46,5.68 6.71,5.48 3.96,5.28 1.98,5.21 0,5.13 -0.61,5.06 -1.22,4.98 -1.80,4.76 -2.38,4.55 -2.89,4.19 -3.40,3.84 -3.81,3.38 -4.22,2.91 -4.51,2.37 -4.80,1.82 -4.95,1.22 -5.10,0.61 -5.10,-0.00 -5.10,-0.61 -4.95,-1.22 -4.80,-1.82 -4.51,-2.37 -4.22,-2.91 -3.81,-3.38 -3.40,-3.84 -2.89,-4.19 -2.38,-4.55 -1.80,-4.76 -1.22,-4.98 -0.61,-5.06 0.00,-5.13 0.00,-5.13 L 0,-5.13 Z"></path></g><g transform="translate(560.8047864057946 137.94284408638578) rotate(0 99.822568997811 0.6435047277323065)" stroke="none"><path fill="#757575" d="M 0.09,-3.36 Q 0.09,-3.36 2.87,-3.45 5.65,-3.53 8.60,-3.61 11.56,-3.68 15.42,-3.59 19.28,-3.50 23.60,-3.35 27.91,-3.19 32.34,-3.07 36.76,-2.96 41.77,-2.88 46.78,-2.80 51.38,-2.74 55.98,-2.68 61.60,-2.63 67.21,-2.59 73.00,-2.56 78.78,-2.52 83.24,-2.50 87.70,-2.48 92.57,-2.46 97.45,-2.45 104.24,-2.43 111.02,-2.42 118.68,-2.41 126.35,-2.40 134.12,-2.40 141.90,-2.39 146.97,-2.39 152.03,-2.38 155.50,-2.53 158.97,-2.69 162.43,-2.81 165.89,-2.93 168.33,-3.13 170.76,-3.33 174.30,-3.52 177.83,-3.71 180.52,-3.87 183.21,-4.03 185.67,-4.22 188.13,-4.41 190.94,-4.62 193.75,-4.84 196.33,-5.03 198.91,-5.22 199.64,-5.13 200.37,-5.05 201.05,-4.79 201.74,-4.52 202.34,-4.11 202.95,-3.69 203.44,-3.14 203.92,-2.59 204.27,-1.94 204.61,-1.29 204.78,-0.57 204.96,0.13 204.96,0.86 204.96,1.60 204.78,2.31 204.61,3.03 204.27,3.68 203.92,4.33 203.44,4.88 202.95,5.43 202.34,5.84 201.74,6.26 201.05,6.52 200.36,6.78 199.64,6.87 198.91,6.96 196.58,5.88 194.26,4.81 193.75,3.96 193.24,3.12 193.03,2.15 192.82,1.19 192.93,0.21 193.03,-0.76 193.45,-1.65 193.86,-2.55 194.54,-3.27 195.22,-3.98 196.09,-4.44 196.96,-4.90 197.94,-5.06 198.91,-5.22 199.88,-5.06 200.86,-4.90 201.73,-4.44 202.60,-3.98 203.28,-3.26 203.95,-2.55 204.37,-1.65 204.78,-0.76 204.89,0.22 204.99,1.20 204.78,2.16 204.57,3.12 204.06,3.97 203.55,4.81 202.80,5.45 202.05,6.09 201.13,6.45 200.21,6.82 199.23,6.87 198.24,6.92 197.29,6.66 196.34,6.39 195.53,5.84 194.71,5.29 194.12,4.50 193.52,3.72 193.20,2.78 192.89,1.85 192.89,0.86 192.89,-0.12 193.21,-1.05 193.52,-1.99 194.12,-2.77 194.72,-3.55 195.53,-4.11 196.35,-4.66 197.30,-4.92 198.25,-5.19 199.24,-5.13 200.22,-5.08 201.14,-4.71 202.05,-4.35 200.48,-4.79 198.91,-5.22 199.64,-5.13 200.37,-5.05 201.05,-4.79 201.74,-4.52 202.34,-4.11 202.95,-3.69 203.44,-3.14 203.92,-2.59 204.27,-1.94 204.61,-1.29 204.78,-0.57 204.96,0.13 204.96,0.86 204.96,1.60 204.78,2.31 204.61,3.03 204.27,3.68 203.92,4.33 203.44,4.88 202.95,5.43 202.34,5.84 201.74,6.26 201.05,6.52 200.37,6.78 199.64,6.87 198.91,6.96 197.40,7.00 195.88,7.04 193.39,6.86 190.89,6.67 188.73,6.48 186.56,6.28 184.44,5.99 182.32,5.69 179.81,5.25 177.30,4.82 174.03,4.34 170.76,3.86 168.33,3.66 165.89,3.45 162.43,3.34 158.97,3.22 155.50,3.06 152.03,2.91 146.97,2.92 141.90,2.92 134.12,2.93 126.35,2.93 118.68,2.94 111.02,2.95 104.24,2.96 97.45,2.97 92.57,2.99 87.70,3.01 83.24,3.03 78.78,3.05 73.00,3.08 67.21,3.12 61.59,3.16 55.98,3.20 51.38,3.26 46.78,3.32 41.77,3.40 36.76,3.48 32.33,3.59 27.91,3.70 23.58,3.85 19.26,3.99 15.37,4.05 11.47,4.12 8.46,3.98 5.44,3.84 2.67,3.60 -0.09,3.36 -0.49,3.30 -0.89,3.24 -1.27,3.09 -1.64,2.93 -1.97,2.69 -2.30,2.45 -2.56,2.14 -2.82,1.83 -3.00,1.47 -3.18,1.10 -3.26,0.71 -3.35,0.31 -3.34,-0.09 -3.33,-0.49 -3.22,-0.88 -3.11,-1.28 -2.91,-1.63 -2.71,-1.98 -2.44,-2.28 -2.16,-2.58 -1.82,-2.80 -1.48,-3.02 -1.09,-3.15 -0.71,-3.29 -0.31,-3.32 0.09,-3.36 0.09,-3.36 L 0.09,-3.36 Z"></path></g><g transform="translate(832.3858193419535 136.3825654999664) rotate(0 106.47138325660637 -63.1912827499832)" stroke="none"><path fill="#757575" d="M 0,-5.13 Q 0,-5.13 1.98,-5.21 3.96,-5.28 6.71,-5.48 9.46,-5.68 11.91,-5.87 14.36,-6.06 16.56,-6.72 18.77,-7.38 20.97,-8.65 23.17,-9.92 25.08,-11.15 26.99,-12.38 28.79,-13.66 30.58,-14.95 32.75,-16.73 34.91,-18.51 36.65,-20.03 38.39,-21.54 40.57,-23.51 42.76,-25.47 44.32,-26.97 45.87,-28.48 47.73,-30.49 49.60,-32.50 51.15,-34.12 52.70,-35.74 54.29,-37.88 55.89,-40.01 57.13,-42.45 58.37,-44.90 59.57,-47.49 60.78,-50.09 61.86,-52.51 62.95,-54.93 63.77,-56.93 64.59,-58.94 65.51,-61.36 66.43,-63.78 67.30,-66.35 68.18,-68.92 68.98,-71.15 69.78,-73.38 70.48,-75.55 71.17,-77.73 71.77,-79.82 72.37,-81.92 72.95,-84.15 73.53,-86.37 74.07,-88.72 74.62,-91.07 75.37,-93.74 76.13,-96.42 76.96,-98.95 77.79,-101.48 78.54,-103.61 79.29,-105.75 80.11,-107.99 80.94,-110.24 82.05,-112.82 83.16,-115.40 84.30,-117.53 85.45,-119.66 86.62,-121.56 87.79,-123.46 89.47,-125.40 91.16,-127.34 93.12,-129.07 95.08,-130.79 97.12,-131.95 99.15,-133.11 101.27,-133.58 103.40,-134.05 105.70,-134.08 108.01,-134.11 110.54,-133.29 113.08,-132.48 114.87,-131.03 116.65,-129.59 118.31,-128.03 119.97,-126.48 120.94,-124.36 121.91,-122.24 122.47,-119.87 123.03,-117.50 123.59,-115.38 124.15,-113.26 124.56,-111.16 124.97,-109.06 125.38,-106.81 125.79,-104.57 126.24,-101.91 126.69,-99.25 127.07,-97.13 127.44,-95.02 127.85,-92.69 128.27,-90.35 128.72,-88.28 129.18,-86.20 129.72,-84.06 130.26,-81.92 131.03,-79.33 131.80,-76.74 132.39,-74.66 132.97,-72.58 133.58,-70.43 134.19,-68.29 134.92,-66.04 135.65,-63.79 136.75,-61.48 137.85,-59.18 138.83,-57.21 139.81,-55.24 141.32,-52.97 142.83,-50.71 144.50,-48.65 146.17,-46.59 148.04,-44.41 149.92,-42.23 151.32,-40.62 152.72,-39.02 154.39,-37.33 156.06,-35.64 157.64,-34.12 159.22,-32.59 161.43,-30.61 163.64,-28.64 165.70,-26.85 167.77,-25.06 169.71,-23.75 171.65,-22.44 173.86,-21.42 176.08,-20.39 178.21,-19.56 180.35,-18.73 182.44,-18.03 184.54,-17.34 186.78,-16.69 189.02,-16.05 191.20,-15.90 193.39,-15.76 195.61,-15.78 197.83,-15.81 200.02,-15.83 202.22,-15.85 204.35,-15.53 206.48,-15.21 208.61,-14.63 210.75,-14.06 208.97,-12.61 207.19,-11.16 208.16,-11.94 209.14,-12.72 210.31,-13.14 211.48,-13.56 212.72,-13.59 213.97,-13.62 215.16,-13.25 216.35,-12.88 217.36,-12.15 218.37,-11.41 219.09,-10.40 219.81,-9.38 220.17,-8.19 220.53,-7.00 220.49,-5.75 220.45,-4.51 220.02,-3.34 219.58,-2.17 218.79,-1.21 218.01,-0.24 216.96,0.42 215.90,1.08 214.69,1.38 213.48,1.67 212.24,1.57 211.00,1.46 209.86,0.96 208.72,0.46 207.79,-0.36 206.87,-1.20 206.26,-2.29 205.65,-3.37 205.42,-4.60 205.20,-5.82 205.37,-7.06 205.54,-8.29 206.10,-9.40 206.66,-10.52 207.55,-11.39 208.43,-12.27 209.55,-12.82 210.67,-13.37 211.91,-13.53 213.14,-13.69 214.36,-13.45 215.59,-13.21 216.67,-12.59 217.75,-11.97 218.58,-11.04 219.40,-10.11 219.89,-8.96 220.38,-7.82 220.47,-6.57 220.57,-5.33 220.26,-4.12 219.95,-2.92 219.28,-1.87 218.60,-0.82 218.60,-0.82 218.60,-0.83 212.71,-0.00 206.82,0.82 204.52,0.21 202.22,-0.40 200.02,-0.43 197.83,-0.45 195.61,-0.47 193.39,-0.49 191.22,-0.57 189.05,-0.64 186.82,-1.12 184.59,-1.59 181.90,-2.44 179.21,-3.30 176.12,-4.43 173.03,-5.56 170.78,-6.54 168.52,-7.53 166.41,-8.63 164.30,-9.73 162.12,-11.13 159.95,-12.54 157.96,-14.19 155.98,-15.83 154.21,-17.27 152.45,-18.72 150.68,-20.33 148.92,-21.94 147.25,-23.50 145.59,-25.06 143.48,-27.09 141.37,-29.12 139.34,-31.32 137.32,-33.52 135.32,-35.85 133.33,-38.18 131.59,-40.39 129.86,-42.61 128.51,-44.65 127.15,-46.70 125.89,-49.14 124.62,-51.59 123.42,-53.97 122.22,-56.35 121.17,-59.01 120.11,-61.67 119.30,-64.34 118.49,-67.00 117.72,-69.66 116.94,-72.33 116.20,-74.74 115.46,-77.15 114.80,-79.66 114.14,-82.17 113.68,-84.27 113.22,-86.37 112.83,-88.63 112.44,-90.88 111.98,-93.24 111.51,-95.59 111.12,-97.92 110.73,-100.25 110.29,-102.68 109.86,-105.12 109.45,-107.23 109.04,-109.33 108.41,-111.70 107.78,-114.07 107.24,-116.36 106.71,-118.65 104.69,-117.91 102.68,-117.18 101.00,-115.32 99.33,-113.47 98.06,-111.09 96.79,-108.72 95.89,-106.64 94.99,-104.55 94.08,-102.08 93.16,-99.61 92.38,-97.49 91.60,-95.37 90.90,-93.14 90.19,-90.91 89.49,-88.46 88.79,-86.01 88.23,-83.52 87.67,-81.03 86.94,-78.73 86.21,-76.44 85.54,-74.18 84.87,-71.93 83.97,-69.31 83.08,-66.69 82.37,-64.56 81.67,-62.42 80.69,-59.64 79.72,-56.87 78.74,-54.31 77.76,-51.76 76.50,-49.01 75.25,-46.26 74.07,-43.76 72.89,-41.26 71.99,-39.33 71.09,-37.40 70.00,-35.32 68.91,-33.24 67.73,-31.44 66.55,-29.64 64.78,-27.65 63.02,-25.66 61.00,-23.51 58.98,-21.37 57.46,-19.79 55.93,-18.22 54.23,-16.57 52.52,-14.92 50.91,-13.49 49.31,-12.05 47.26,-10.32 45.21,-8.58 43.22,-6.99 41.22,-5.41 39.37,-4.06 37.52,-2.70 35.36,-1.42 33.21,-0.14 30.82,1.12 28.43,2.39 26.41,3.35 24.40,4.32 22.17,5.01 19.93,5.71 17.14,5.89 14.36,6.06 11.91,5.87 9.46,5.68 6.71,5.48 3.96,5.28 1.98,5.21 0,5.13 -0.61,5.06 -1.22,4.98 -1.80,4.76 -2.38,4.55 -2.89,4.19 -3.40,3.84 -3.81,3.38 -4.22,2.91 -4.51,2.37 -4.80,1.82 -4.95,1.22 -5.10,0.61 -5.10,-0.00 -5.10,-0.61 -4.95,-1.22 -4.80,-1.82 -4.51,-2.37 -4.22,-2.91 -3.81,-3.38 -3.40,-3.84 -2.89,-4.19 -2.38,-4.55 -1.80,-4.76 -1.22,-4.98 -0.61,-5.06 0.00,-5.13 0.00,-5.13 L 0,-5.13 Z"></path></g></svg>