<?xml version="1.0" encoding="UTF-8"?>
<svg xmlns="http://www.w3.org/2000/svg" xmlns:xlink="http://www.w3.org/1999/xlink" version="1.1" id="Capa_1" x="0px" y="0px" viewBox="0 0 512.018 512.018" style="enable-background:new 0 0 512.018 512.018;" xml:space="preserve" width="512" height="512">
<g>
	<path style="fill:none;stroke:#000000;stroke-width:15;stroke-linecap:round;stroke-linejoin:round;stroke-miterlimit:10;" d="&#10;&#9;&#9;M111.099,341.318c-19.94,9.17-38.143,22.169-53.478,38.506l0,0"/>
	<path style="fill:none;stroke:#000000;stroke-width:15;stroke-linecap:round;stroke-linejoin:round;stroke-miterlimit:10;" d="&#10;&#9;&#9;M394.155,340.122c19.165,8.423,36.795,20.349,51.908,35.353"/>
	<path style="fill:none;stroke:#000000;stroke-width:15;stroke-linecap:round;stroke-linejoin:round;stroke-miterlimit:10;" d="&#10;&#9;&#9;M370.099,350.565c17.051,0,30.874-13.823,30.874-30.874c0-17.051-13.823-30.874-30.874-30.874"/>
	<path style="fill:none;stroke:#000000;stroke-width:15;stroke-linecap:round;stroke-linejoin:round;stroke-miterlimit:10;" d="&#10;&#9;&#9;M175.442,160.373c-28.48,29.903-34.203,80.579-34.203,137.317l0,0c0,0,32.604-63.544,56.063-46.788&#10;&#9;&#9;c22.166,15.833,39.75,16.624,56.654,16.624c16.904,0,34.488-0.792,56.654-16.624c23.459-16.757,56.063,46.788,56.063,46.788l0,0&#10;&#9;&#9;c0.631-90.472-20.484-165.531-112.718-165.531c-19.87,0-36.315,3.075-49.906,8.731"/>
	<path style="fill:none;stroke:#000000;stroke-width:15;stroke-linecap:round;stroke-linejoin:round;stroke-miterlimit:10;" d="&#10;&#9;&#9;M141.239,297.69L141.239,297.69c0,0,32.604-63.544,56.063-46.787c22.166,15.833,39.75,16.624,56.654,16.624&#10;&#9;&#9;c16.904,0,34.488-0.792,56.654-16.624c23.459-16.757,56.063,46.788,56.063,46.788"/>
	<path style="fill:none;stroke:#000000;stroke-width:15;stroke-linecap:round;stroke-linejoin:round;stroke-miterlimit:10;" d="&#10;&#9;&#9;M161.723,393.117c-13.218-23.128-20.994-51.438-20.994-82.015c0-4.524,0.17-8.997,0.503-13.412"/>
	<path style="fill:none;stroke:#000000;stroke-width:15;stroke-linecap:round;stroke-linejoin:round;stroke-miterlimit:10;" d="&#10;&#9;&#9;M366.599,296.648c0.387,4.752,0.585,9.574,0.585,14.454c0,30.578-7.776,58.888-20.994,82.016"/>
	<path style="fill:none;stroke:#000000;stroke-width:15;stroke-linecap:round;stroke-linejoin:round;stroke-miterlimit:10;" d="&#10;&#9;&#9;M103.633,485.058H33.48c-15.401,0-27.375-13.312-25.849-28.637c3.852-38.677,19.259-85.155,79.353-77.698&#10;&#9;&#9;c33.981,4.216,115.486,28.209,166.972,44.034"/>
	<path style="fill:none;stroke:#000000;stroke-width:15;stroke-linecap:round;stroke-linejoin:round;stroke-miterlimit:10;" d="&#10;&#9;&#9;M380.19,485.058h98.33c15.306,0,27.372-13.169,25.872-28.401c-3.813-38.723-19.16-85.406-79.377-77.935&#10;&#9;&#9;c-44.818,5.561-172.304,45.524-204.557,55.776c-4.462,1.418-7.485,5.56-7.485,10.242v40.318H346.19"/>
	
		<polyline style="fill:none;stroke:#000000;stroke-width:15;stroke-linecap:round;stroke-linejoin:round;stroke-miterlimit:10;" points="&#10;&#9;&#9;34.838,26.96 81.071,26.96 33.336,100.222 82.209,100.222 &#9;"/>
	
		<polyline style="fill:none;stroke:#000000;stroke-width:15;stroke-linecap:round;stroke-linejoin:round;stroke-miterlimit:10;" points="&#10;&#9;&#9;114.51,53.193 144.189,53.193 113.546,100.222 144.919,100.222 &#9;"/>
	
		<polyline style="fill:none;stroke:#000000;stroke-width:15;stroke-linecap:round;stroke-linejoin:round;stroke-miterlimit:10;" points="&#10;&#9;&#9;176.069,69.872 195.221,69.872 175.446,100.222 195.693,100.222 &#9;"/>
	<path style="fill:none;stroke:#000000;stroke-width:15;stroke-linecap:round;stroke-linejoin:round;stroke-miterlimit:10;" d="&#10;&#9;&#9;M137.693,350.565c-17.051,0-30.874-13.823-30.874-30.874c0-17.051,13.823-30.874,30.874-30.874"/>
	<path style="fill:none;stroke:#000000;stroke-width:15;stroke-linecap:round;stroke-linejoin:round;stroke-miterlimit:10;" d="&#10;&#9;&#9;M212.974,444.74l-72.885,5.655c-17.205,1.335-33.367,8.777-45.566,20.984l0,0c-5.046,5.049-1.47,13.679,5.668,13.679l112.782,0"/>
</g>















</svg>
